<svg id="Layer_1" data-name="Layer 1" xmlns="http://www.w3.org/2000/svg" viewBox="0 0 176 32"><defs><style>.cls-1{fill:#3c50e0;}.cls-2{fill:#fff;}.cls-3{opacity:0.9;}.cls-4{opacity:0.7;}</style></defs><title>logo1</title><path class="cls-1" d="M0,8.42A8.42,8.42,0,0,1,8.42,0H23.58A8.42,8.42,0,0,1,32,8.42V23.58A8.42,8.42,0,0,1,23.58,32H8.42A8.42,8.42,0,0,1,0,23.58Z"/><path class="cls-2" d="M8.42,8.42a1.69,1.69,0,0,1,1.69-1.68h0a1.68,1.68,0,0,1,1.68,1.68V23.58a1.68,1.68,0,0,1-1.68,1.68h0a1.69,1.69,0,0,1-1.69-1.68Z"/><g class="cls-3"><path class="cls-2" d="M14.74,15.16a1.69,1.69,0,0,1,1.68-1.69h0a1.69,1.69,0,0,1,1.69,1.69v8.42a1.69,1.69,0,0,1-1.69,1.68h0a1.68,1.68,0,0,1-1.68-1.68Z"/></g><g class="cls-4"><path class="cls-2" d="M21.05,11a1.69,1.69,0,0,1,1.69-1.69h0A1.69,1.69,0,0,1,24.42,11V23.58a1.68,1.68,0,0,1-1.68,1.68h0a1.69,1.69,0,0,1-1.69-1.68Z"/></g><path d="M41.89,22.74a4.86,4.86,0,0,1-2.67.69c-2.85,0-5-2.6-5-7.4,0-4.57,2.15-7.67,5.28-7.67A4,4,0,0,1,41.9,9l-.31,1.54a3.55,3.55,0,0,0-2-.61c-2.37,0-3.95,2.19-3.95,6,0,3.58,1.43,5.88,3.89,5.88a3.9,3.9,0,0,0,2.13-.61Z"/><path d="M43.48,7.81H44.8v6.55h0A3.22,3.22,0,0,1,45.77,13a2.12,2.12,0,0,1,1.35-.54c1,0,2.54.86,2.54,4.49v6.24H48.34v-6c0-1.69-.44-3.12-1.68-3.12-.86,0-1.53.87-1.77,1.91a3.08,3.08,0,0,0-.09.91v6.33H43.48Z"/><path d="M52.54,18.31C52.57,20.89,53.71,22,55,22a3.52,3.52,0,0,0,2-.54l.22,1.37a4.38,4.38,0,0,1-2.41.65c-2.24,0-3.57-2.12-3.57-5.29s1.29-5.66,3.4-5.66c2.37,0,3,3,3,4.94,0,.39,0,.7,0,.89Zm3.87-1.37c0-1.21-.35-3.1-1.83-3.1s-1.92,1.78-2,3.1Z"/><path d="M59.14,21.26a2.77,2.77,0,0,0,1.74.76,1.38,1.38,0,0,0,1.41-1.56c0-.91-.38-1.41-1.35-1.93a3.21,3.21,0,0,1-1.92-3c0-1.69.94-3.08,2.5-3.08a2.81,2.81,0,0,1,1.79.65L63,14.52a2.27,2.27,0,0,0-1.49-.61,1.27,1.27,0,0,0-1.21,1.43c0,.87.43,1.26,1.38,1.78a3.26,3.26,0,0,1,1.9,3.17c0,1.84-1,3.14-2.71,3.14a3.14,3.14,0,0,1-2-.72Z"/><path d="M66.85,9.7v3h1.89v1.45H66.85v5.66c0,1.3.25,2,1,2a2.17,2.17,0,0,0,.76-.13l.06,1.43a2.35,2.35,0,0,1-1.17.26,1.59,1.59,0,0,1-1.42-.8,5.18,5.18,0,0,1-.51-2.74V14.17H64.43V12.72h1.13V10.2Z"/><path d="M79,23.21,77.69,20c-.52-1.23-.85-2-1.17-2.88h0c-.28.84-.57,1.62-1.09,2.9l-1.22,3.21h-1.5l3.09-7.39-3-7.22h1.52L75.65,12c.38,1,.66,1.69.93,2.47h0c.28-.86.54-1.54.91-2.47L78.92,8.6h1.5l-3.07,7.11,3.15,7.5Z"/><path d="M84.71,16.64v1.41H81V16.64Z"/><path d="M86.26,16c0-1.24,0-2.3-.06-3.27h1.15l.05,2.06h.06c.33-1.41,1.12-2.3,2-2.3a1.06,1.06,0,0,1,.37.06v1.8a1.49,1.49,0,0,0-.45-.06c-.93,0-1.59,1-1.77,2.45a7.64,7.64,0,0,0-.06.89v5.59h-1.3Z"/><path d="M95.11,23.21,95,21.89h0a2.58,2.58,0,0,1-2.22,1.56c-1.47,0-2.22-1.5-2.22-3,0-2.54,1.56-3.93,4.36-3.91v-.21c0-.87-.16-2.43-1.65-2.43a2.86,2.86,0,0,0-1.89.78L91,13.41a3.55,3.55,0,0,1,2.39-.93c2.22,0,2.76,2.19,2.76,4.29V20.7a21.11,21.11,0,0,0,.12,2.51Zm-.2-5.35c-1.44-.05-3.07.32-3.07,2.36,0,1.24.57,1.82,1.24,1.82,1,0,1.55-.87,1.76-1.75a3.26,3.26,0,0,0,.07-.61Z"/><path d="M98.68,12.72l1.59,6.2c.16.69.34,1.52.46,2.15h0c.14-.63.29-1.44.47-2.19l1.44-6.16h1.39l-2,7.48c-.94,3.6-1.59,5.44-2.49,6.57A3.4,3.4,0,0,1,98,28l-.33-1.61a3.34,3.34,0,0,0,1.16-.93,6,6,0,0,0,1.11-2.13,1.69,1.69,0,0,0,.1-.45,2.3,2.3,0,0,0-.09-.5l-2.68-9.67Z"/><path d="M108.49,8.79a13.27,13.27,0,0,1,2.77-.3,4.76,4.76,0,0,1,4.1,1.82,8.54,8.54,0,0,1,1.42,5.25,10,10,0,0,1-1.45,5.68,5.17,5.17,0,0,1-4.47,2.1,14.51,14.51,0,0,1-2.37-.17Zm1.3,12.93a6.21,6.21,0,0,0,1.32.1c2.79,0,4.31-2.25,4.31-6.2,0-3.45-1.34-5.64-4.1-5.64a5.19,5.19,0,0,0-1.53.2Z"/><path d="M119.9,9.77c0,.65-.31,1.17-.84,1.17s-.79-.52-.79-1.17.34-1.2.82-1.2S119.9,9.09,119.9,9.77Zm-1.47,13.44V12.72h1.32V23.21Z"/><path d="M126,23.21l-.1-1.32h0a2.56,2.56,0,0,1-2.22,1.56c-1.47,0-2.22-1.5-2.22-3,0-2.54,1.56-3.93,4.37-3.91v-.21c0-.87-.17-2.43-1.65-2.43a2.84,2.84,0,0,0-1.89.78l-.3-1.26a3.55,3.55,0,0,1,2.38-.93c2.22,0,2.76,2.19,2.76,4.29V20.7a21.11,21.11,0,0,0,.12,2.51Zm-.19-5.35c-1.44-.05-3.08.32-3.08,2.36,0,1.24.57,1.82,1.25,1.82.94,0,1.54-.87,1.75-1.75a2.62,2.62,0,0,0,.08-.61Z"/><path d="M135.42,12.72c0,.75,0,1.6,0,2.88v6.09c0,2.41-.33,3.89-1,4.8a3.17,3.17,0,0,1-2.64,1.26,3.62,3.62,0,0,1-2.41-.87l.33-1.45a3.19,3.19,0,0,0,2.13.82c1.34,0,2.34-1,2.34-3.67V21.41h0a2.53,2.53,0,0,1-2.3,1.76c-1.8,0-3.09-2.21-3.09-5.12,0-3.56,1.6-5.57,3.27-5.57a2.45,2.45,0,0,1,2.26,1.82h0l.06-1.58Zm-1.36,4.14A4.58,4.58,0,0,0,134,16c-.24-1.11-.89-2-1.85-2-1.26,0-2.16,1.54-2.16,4,0,2.06.72,3.78,2.15,3.78.8,0,1.54-.74,1.83-2a4.94,4.94,0,0,0,.1-1Z"/><path d="M137.46,15.56c0-1.09,0-2-.05-2.84h1.17l.07,1.73h0a2.71,2.71,0,0,1,2.4-2c1,0,2.56.86,2.56,4.46v6.27h-1.31V17.16c0-1.69-.44-3.1-1.69-3.1-.86,0-1.54.89-1.76,2a3.94,3.94,0,0,0-.09.89v6.31h-1.33Z"/><path d="M152.36,17.88c0,3.88-1.86,5.57-3.61,5.57-2,0-3.48-2.08-3.48-5.4,0-3.51,1.59-5.57,3.6-5.57S152.36,14.67,152.36,17.88ZM146.6,18c0,2.3.92,4,2.2,4S151,20.31,151,17.94c0-1.78-.61-4-2.18-4S146.6,16,146.6,18Z"/><path d="M153.85,21.26a2.77,2.77,0,0,0,1.74.76A1.38,1.38,0,0,0,157,20.46c0-.91-.38-1.41-1.35-1.93a3.21,3.21,0,0,1-1.92-3c0-1.69.94-3.08,2.5-3.08a2.81,2.81,0,0,1,1.79.65l-.33,1.39a2.27,2.27,0,0,0-1.49-.61A1.27,1.27,0,0,0,155,15.34c0,.87.43,1.26,1.38,1.78a3.26,3.26,0,0,1,1.9,3.17c0,1.84-1,3.14-2.71,3.14a3.14,3.14,0,0,1-2-.72Z"/><path d="M161.55,9.7v3h1.9v1.45h-1.9v5.66c0,1.3.26,2,1,2a2.24,2.24,0,0,0,.77-.13l.06,1.43a2.35,2.35,0,0,1-1.17.26,1.58,1.58,0,0,1-1.42-.8,5.17,5.17,0,0,1-.52-2.74V14.17h-1.12V12.72h1.12V10.2Z"/><path d="M166.4,9.77c0,.65-.32,1.17-.84,1.17s-.8-.52-.8-1.17.35-1.2.83-1.2S166.4,9.09,166.4,9.77Zm-1.47,13.44V12.72h1.32V23.21Z"/><path d="M173.61,22.82a3.63,3.63,0,0,1-2.08.61c-2.19,0-3.61-2.15-3.61-5.36s1.52-5.57,3.89-5.57a3.31,3.31,0,0,1,1.83.54l-.3,1.48a2.33,2.33,0,0,0-1.53-.5c-1.66,0-2.56,1.78-2.56,4,0,2.43,1.08,3.92,2.52,3.92a2.85,2.85,0,0,0,1.62-.52Z"/></svg>